# xmcd
#
# Track frame offsets:
#	150
#	16717
#	37812
#	57532
#	78255
#	99910
#	122352
#	133385
#	160117
#
# Disc length: 2386 seconds
#
# Revision: 1
# Processed by: cddbd v1.5.1PL0 Copyright (c) Steve Scherf et al.
# Submitted via: audiograbber 1.83.01
#
DISCID=62095009
DTITLE=Various Artist - Uptown The Future
DYEAR=1991
DGENRE=R&B
TTITLE0=Heavy D and the Boys - Let the people sing
TTITLE1=Lady Kazan - For better or for worse
TTITLE2=Guy - Do me right
TTITLE3=Jeff Redd - What goes around, comes around
TTITLE4=Key West - Tomorrow is too late
TTITLE5=Father MC - Lisa baby
TTITLE6=Finesse and Synquis - U got it goin on
TTITLE7=Jodeci - My phone
TTITLE8=Lucas - Show me your moves
EXTD=
EXTT0=
EXTT1=
EXTT2=
EXTT3=
EXTT4=
EXTT5=
EXTT6=
EXTT7=
EXTT8=
PLAYORDER=
